<svg preserveAspectRatio="none" width="100%" height="100%" overflow="visible" style="display: block;" viewBox="0 0 306 313.061" fill="none" xmlns="http://www.w3.org/2000/svg">
<g id="Cubo 3D">
<g id="3D" filter="url(#filter0_d_2049_400)">
<path d="M114.333 107.111L8 33.8056V227.944L114.333 298.833V107.111Z" fill="var(--fill-0, #474747)"/>
<path d="M181.194 4.00001L8 33.8056L114.333 107.111L298 78.9167L181.194 4.00001Z" fill="#F7F6F4"/>
<path d="M298 78.9167L114.333 107.111V298.833L298 265V78.9167Z" fill="#F7F6F4"/>
<path d="M181.194 4.00001L183.354 0.633036C182.513 0.0936639 181.501 -0.111482 180.516 0.05796L181.194 4.00001ZM8 33.8056L7.3216 29.8635C5.40243 30.1938 4 31.8582 4 33.8056H8ZM298 78.9167H302C302 77.5541 301.306 76.2853 300.16 75.5497L298 78.9167ZM114.333 298.833L112.115 302.162L113.464 303.061L115.058 302.767L114.333 298.833ZM8 227.944H4V230.085L5.7812 231.273L8 227.944ZM298 265L298.725 268.934L302 268.33V265H298ZM181.194 4.00001L180.516 0.05796L7.3216 29.8635L8 33.8056L8.6784 37.7476L181.873 7.94206L181.194 4.00001ZM8 33.8056L5.72965 37.0988L112.063 110.404L114.333 107.111L116.604 103.818L10.2703 30.5123L8 33.8056ZM114.333 107.111L114.94 111.065L298.607 82.8704L298 78.9167L297.393 74.963L113.726 103.157L114.333 107.111ZM298 78.9167L300.16 75.5497L183.354 0.633036L181.194 4.00001L179.035 7.36699L295.84 82.2836L298 78.9167ZM114.333 107.111H110.333V298.833H114.333H118.333V107.111H114.333ZM114.333 298.833L116.552 295.505L10.2188 224.616L8 227.944L5.7812 231.273L112.115 302.162L114.333 298.833ZM8 227.944H12V33.8056H8H4V227.944H8ZM114.333 298.833L115.058 302.767L298.725 268.934L298 265L297.275 261.066L113.609 294.9L114.333 298.833ZM298 265H302V78.9167H298H294V265H298Z" fill="var(--stroke-0, #474747)"/>
</g>
</g>
<defs>
<filter id="filter0_d_2049_400" x="0" y="0" width="306" height="313.061" filterUnits="userSpaceOnUse" color-interpolation-filters="sRGB">
<feFlood flood-opacity="0" result="BackgroundImageFix"/>
<feColorMatrix in="SourceAlpha" type="matrix" values="0 0 0 0 0 0 0 0 0 0 0 0 0 0 0 0 0 0 127 0" result="hardAlpha"/>
<feOffset dy="6"/>
<feGaussianBlur stdDeviation="2"/>
<feComposite in2="hardAlpha" operator="out"/>
<feColorMatrix type="matrix" values="0 0 0 0 0 0 0 0 0 0 0 0 0 0 0 0 0 0 0.4 0"/>
<feBlend mode="normal" in2="BackgroundImageFix" result="effect1_dropShadow_2049_400"/>
<feBlend mode="normal" in="SourceGraphic" in2="effect1_dropShadow_2049_400" result="shape"/>
</filter>
</defs>
</svg>
