<svg preserveAspectRatio="none" width="100%" height="100%" overflow="visible" style="display: block;" viewBox="0 0 227.936 145.549" fill="none" xmlns="http://www.w3.org/2000/svg">
<g id="Wireframe 2">
<path id="Vector 1" d="M223.817 141.43V4.11972H4.11929V141.43H223.817Z" fill="var(--fill-0, #F7F6F4)" stroke="var(--stroke-0, #474747)" stroke-width="5.87591" stroke-linejoin="round"/>
<path id="Vector 2" d="M4.1131 22.3285H223.285" stroke="var(--stroke-0, #474747)" stroke-width="5.87591"/>
<circle id="Ellipse 59" cx="223.817" cy="4.11932" r="4.11932" fill="var(--fill-0, #474747)"/>
<circle id="Ellipse 62" cx="223.817" cy="141.43" r="4.11932" fill="var(--fill-0, #474747)"/>
<circle id="Ellipse 60" cx="4.11942" cy="4.11942" r="4.11932" fill="var(--fill-0, #474747)"/>
<circle id="Ellipse 61" cx="4.11932" cy="141.43" r="4.11932" fill="var(--fill-0, #474747)"/>
<path id="Vector 3" d="M17.0403 14.1023C34.433 14.1023 38.7812 14.1023 38.7812 14.1023" stroke="var(--stroke-0, #474747)" stroke-width="3.52555"/>
<path id="Vector 6" d="M17.6277 38.7811C53.3533 38.7811 62.2847 38.7811 62.2847 38.7811" stroke="var(--stroke-0, #474747)" stroke-width="3.52555"/>
<path id="Vector 5" d="M32.905 113.993H74.0364V55.2337H32.905V113.993ZM74.0364 55.2337L32.905 113.993M74.0364 113.993L53.4707 84.6133L32.905 55.2337" stroke="var(--stroke-0, #474747)" stroke-width="2.35036" stroke-linejoin="round"/>
<path id="Vector 7" d="M92.8395 113.993H133.971V55.2337H92.8395V113.993ZM133.971 55.2337L92.8395 113.993M133.971 113.993L113.405 84.6133L92.8395 55.2337" stroke="var(--stroke-0, #474747)" stroke-width="2.35036" stroke-linejoin="round"/>
<path id="Vector 8" d="M152.774 113.993H193.905V55.2337H152.774V113.993ZM193.905 55.2337L152.774 113.993M193.905 113.993L173.339 84.6133L152.774 55.2337" stroke="var(--stroke-0, #474747)" stroke-width="2.35036" stroke-linejoin="round"/>
</g>
</svg>
